<?xml version="1.0" encoding="utf-8"?>
<!-- Generator: Adobe Illustrator 22.0.0, SVG Export Plug-In . SVG Version: 6.00 Build 0)  -->
<svg version="1.1" id="Layer_1" xmlns="http://www.w3.org/2000/svg" xmlns:xlink="http://www.w3.org/1999/xlink" x="0px" y="0px"
	 viewBox="0 0 274.7 244.1" style="enable-background:new 0 0 274.7 244.1;" xml:space="preserve">
<style type="text/css">
	.st0{fill:#7B363E;}
</style>
<g>
	<path class="st0" d="M116.1,244.1c-5.4,0-10.6-1.7-15-5c-9.3-6.9-11.8-16.8-7.8-31.2c0.3-1.2,0.1-2.4-0.6-3.4c-0.7-1-1.8-1.6-3-1.7
		l-3-0.2c-1.5-0.1-3.1-0.1-4.6-0.1c-3.1,0-6.1,0-8.8-0.5c-10.5-2-18-11.6-17.4-22.4c0.6-10.7,8.9-19.4,19.7-20.6
		c0.4,0,0.8-0.1,1.3-0.2l0.6-0.1c1.1-0.2,2.1-0.9,2.7-1.8c0.6-0.9,0.8-2.1,0.5-3.2l-5.3-19.8L43.5,15.9c-1.6-5.8-3.6-7.4-9.6-7.4
		l-17.2,0c-3.8,0-7.7,0-11.5,0c-2,0-3.7-0.8-4.6-2.1c-0.7-1.1-0.8-2.3-0.3-3.6c0.9-2.4,2.3-2.7,3.4-2.7l3.5,0C11.8,0,16.4,0,21,0
		c5.7,0,11.3,0.1,17,0.2c5.8,0.2,11.3,5.1,13.1,11.6c3.1,11.2,6.1,22.5,9.1,33.7c1,3.8,3.3,5.6,7.2,5.6c40.6,0.1,81.2,0.3,121.8,0.5
		c0,0,21.2,0.1,27.3,0.2c8.8,0.1,17.6,0.1,26.5,0.1c5.1,0,10.1,0,15.2-0.1c0,0,0,0,0,0c9.5,0,14,3,16.4,10.6v4.4l-1.8,7.6
		c-1.6,6.5-3.1,13-4.6,19.6l-13.8,59.6c-2.2,9.3-8.2,13.9-18,13.9l-156.7-0.1c-1,0-2,0-3,0.1c-7.2,0.6-12.4,6.2-12.3,13.4
		c0.1,7.2,5.3,12.6,12.6,13.1c0.8,0.1,1.6,0.1,2.4,0.1l164.2,0c2.4,0.1,4,1.3,4.5,3.2c0.7,2.5-0.9,4.1-2.4,5l-0.5,0.3
		c-1.8,1-2.9,3.5-2.1,5.4c3.1,7,3.3,13.6,0.8,20.2c-1.8,4.7-4.9,8.6-9.2,11.5c-4.1,2.8-9,4.3-14.1,4.3c-5.1,0-9.9-1.5-14-4.3
		c-9.9-6.9-12.4-16.1-8.6-32c0.3-1.2,0-2.5-0.8-3.4c-0.8-1-1.9-1.5-3.2-1.5h-51.8c-1.4,0-2.6,0.7-3.4,1.8c-0.7,1.1-0.9,2.6-0.3,3.8
		c3,7,3.1,13.7,0.4,20.3c-2,4.8-5.2,8.6-9.6,11.5C125.4,242.8,120.8,244.1,116.1,244.1z M116,202.7c-4.4,0-8.5,1.7-11.6,4.9
		c-3.1,3.1-4.8,7.3-4.8,11.7c0,9.2,7.2,16.4,16.4,16.4c4.5,0,8.7-1.8,11.8-5c3.1-3.1,4.7-7.3,4.7-11.7
		C132.4,210,125,202.8,116,202.7C116.1,202.7,116,202.7,116,202.7z M220.7,202.7c-8.9,0.1-16.2,7.4-16.3,16.3
		c-0.1,4.4,1.6,8.6,4.7,11.7c3.1,3.1,7.2,4.9,11.7,4.9c9.1,0,16.5-7.4,16.5-16.4c0-4.4-1.7-8.5-4.8-11.7c-3.1-3.1-7.2-4.8-11.6-4.8
		C220.8,202.7,220.7,202.7,220.7,202.7z M130.7,114.2c-1.2,0-2.3,0.5-3,1.4c-0.8,0.9-1.1,2-1,3.2l1.1,8.5c1.2,9,2.3,17.7,3.5,26.5
		c0.4,3.4,2.8,5.4,6.3,5.4c3,0,5.9,0,8.7,0l13.5,0c2.2,0,4-1.8,4-4v-36.9c0-2.2-1.8-4-4-4H130.7z M224.5,114c-2.4,0-5.3,1-6,5.7
		l-2.1,16.2l-2.4,18.7c-0.1,1.1,0.2,2.3,1,3.2c0.8,0.9,1.9,1.4,3,1.4l18.9,0c5.4,0,8.2-2.3,9.4-7.6l6-25.8c0.3-1.5,0.7-2.9,1-4.5
		l0.5-2.4c0.3-1.2,0-2.4-0.8-3.4c-0.8-0.9-1.9-1.5-3.1-1.5l-13.4,0C232.4,114.1,224.5,114,224.5,114z M176.8,114.2c-2.2,0-4,1.8-4,4
		v36.9c0,2.2,1.8,4,4,4l8.9,0c4.8,0,9.5,0,14.2-0.1c2.7,0,5.1-2.7,5.5-5.1c1.5-11,3-22,4.4-33.1c0.1-0.7,0.1-1.4,0.1-2.1
		c0-2.2-1.8-4.6-4-4.6H176.8z M86.2,114.1c-0.6,0-1.2,0.1-1.9,0.2l-0.8,0.1c-1.2,0.1-2.2,0.8-2.8,1.8s-0.8,2.2-0.5,3.3l2.1,7.7
		c2.4,8.8,4.7,17.5,7.2,26.2c0.8,2.8,4.2,5.5,7.1,5.6c3.7,0.1,7.3,0.2,11,0.2l11.1,0c1.1,0,2.2-0.5,3-1.3c0.8-0.8,1.1-1.9,1.1-3
		l-0.1-1.1c-0.1-0.8-0.1-1.6-0.2-2.3l-1.2-9.2c-1-7.4-2-14.8-2.9-22.2c-0.5-3.9-2.8-5.9-6.6-5.9c-4.2,0-8.4,0-12.5,0l-8.5,0
		L86.2,114.1z M176.8,60.3c-2.2,0-4,1.8-4,4v36.9c0,1.8,1.2,3.4,2.9,3.9c0.6,0.2,1.2,0.4,2,0.4l8.7,0c6.6,0,13.3,0,19.9,0.1l0,0
		c2.5,0,5.6-1,6.2-5.9c0.4-3.2,2.1-15.5,2.1-15.5l2.5-19.2c0.1-1.1-0.2-2.3-1-3.2c-0.8-0.9-1.9-1.4-3-1.4H176.8z M69.4,59.9
		c-1.3,0-2.4,0.6-3.2,1.6c-0.8,1-1,2.3-0.7,3.5l2.1,7.8c2.6,9.5,5.1,18.8,7.5,28.1c0.6,2.1,2.1,4.7,6.4,4.7l27.4,0
		c0.8,0,1.5-0.1,2.2-0.2c1.7-0.2,3.6-1.4,4-3c0.2-0.6,0.4-1.3,0.3-2.3l-0.6-4.8c-1.3-10.1-2.6-20.3-4-30.4c-0.4-3-3.7-4.7-5.9-4.8
		c-2.1-0.1-4.2-0.1-6.4-0.1H84.2H69.4z M231.6,60.5c-2.9,0-5.5,2.8-5.9,5.2c-0.7,4.4-1.3,8.8-1.8,13.1l-2.8,22
		c-0.1,1.1,0.2,2.3,1,3.2c0.8,0.9,1.9,1.4,3,1.4h28.7c1.9,0,3.5-1.3,3.9-3.1l8.4-36.5c0.5-2-0.7-4-2.6-4.7c-0.5-0.2-1.1-0.5-2-0.5
		l-4.8,0c-6.1,0-12.3-0.1-18.4-0.1L231.6,60.5z M123.5,60.2c-1.2,0-2.3,0.5-3,1.4c-0.8,0.9-1.1,2-1,3.2l4.9,37.1c0.3,2,2,3.5,4,3.5
		h31.4c2.2,0,4-1.8,4-4V64.2c0-2.2-1.8-4-4-4H123.5z"/>
</g>
</svg>
